#!OML:ASF F:\VICON\USERDATA\INSTALL\rory3\rory3.ASF
:FULLY-SPECIFIED
:DEGREES
1655
root 11.0749 17.6757 0.356386 186.312 -59.5937 171.543
lowerback 12.6706 3.78637 1.77286
upperback 1.83765 5.13927 -0.354845
thorax -4.95845 2.45424 -2.21284
lowerneck -16.771 8.75069 -6.72451
upperneck 43.5814 12.7642 2.85539
head 18.6133 3.54878 4.75106
rclavicle 1.43125e-014 -3.97569e-015
rhumerus -36.8609 -13.3042 -70.1001
rradius 37.8718
rwrist 0.695281
rhand -15.7208 12.65
rfingers 7.12502
rthumb 10.4695 -17.0693
lclavicle 1.43125e-014 -3.97569e-015
lhumerus -38.384 12.9081 75.606
lradius 34.808
lwrist -3.25074
lhand -22.565 23.8637
lfingers 7.12502
lthumb 3.86321 53.8084
rfemur -5.20838 3.04205 4.22797
rtibia 28.3077
rfoot -16.431 -4.07812
rtoes -13.1688
lfemur 2.50288 -14.6761 -7.07692
ltibia 14.2088
lfoot -3.77828 -8.37812
ltoes -23.2311
1656
root 11.0106 17.6554 0.465269 186.303 -59.5155 171.651
lowerback 12.5491 3.80106 1.76475
upperback 1.757 5.16353 -0.321399
thorax -4.97927 2.46776 -2.17212
lowerneck -17.1878 8.56066 -6.34952
upperneck 44.023 12.5366 2.47877
head 19.1213 3.38384 4.54129
rclavicle -1.26626e-013 1.27222e-014
rhumerus -37.0694 -13.499 -69.8155
rradius 37.8374
rwrist 0.735369
rhand -16.056 12.7043
rfingers 7.12502
rthumb 10.1462 -17.0311
lclavicle -1.26626e-013 1.27222e-014
lhumerus -38.341 12.7598 75.7979
lradius 34.7067
lwrist -3.49861
lhand -22.3285 23.5373
lfingers 7.12502
lthumb 4.09153 53.4778
rfemur -5.35825 3.09596 3.83626
rtibia 28.3159
rfoot -16.295 -4.30475
rtoes -14.7588
lfemur 2.84155 -14.2297 -7.27571
ltibia 13.5458
lfoot -4.42769 -8.80829
ltoes -23.1704
1657
root 10.9475 17.6379 0.574475 186.563 -59.4296 171.485
lowerback 12.4158 3.79415 1.5415
upperback 1.6822 5.13098 -0.267553
thorax -5.01081 2.45711 -1.98077
lowerneck -17.2021 8.53294 -6.44772
upperneck 44.0652 12.4839 2.57526
head 19.133 3.35502 4.59532
rclavicle -4.02539e-014 -3.18055e-015
rhumerus -37.1745 -13.3513 -69.5755
rradius 37.7875
rwrist 0.588192
rhand -16.248 12.7955
rfingers 7.12502
rthumb 9.96094 -16.9488
lclavicle -4.02539e-014 -3.18055e-015
lhumerus -38.3014 12.8851 75.9778
lradius 34.5861
lwrist -3.79019
lhand -22.044 23.3618
lfingers 7.12502
lthumb 4.36626 53.2968
rfemur -5.48706 3.15013 3.27668
rtibia 28.2333
rfoot -16.1382 -4.38111
rtoes -15.3552
lfemur 3.01481 -13.5845 -7.64107
ltibia 13.0974
lfoot -4.96177 -9.32274
ltoes -24.7265
1658
root 10.8871 17.6186 0.693998 186.728 -59.4034 171.355
lowerback 12.428 3.78053 1.47758
upperback 1.61552 5.10896 -0.25267
thorax -5.09572 2.44668 -1.9306
lowerneck -16.8421 8.55594 -6.63838
upperneck 43.726 12.4142 2.86648
head 18.7597 3.39746 4.69708
rclavicle -6.75868e-014 3.97569e-015
rhumerus -37.2748 -13.4151 -69.2993
rradius 37.6347
rwrist 0.536876
rhand -16.0523 12.8113
rfingers 7.12502
rthumb 10.1497 -16.9239
lclavicle -6.75868e-014 3.97569e-015
lhumerus -38.1652 12.7885 76.2349
lradius 34.4987
lwrist -3.78336
lhand -22.2661 23.6506
lfingers 7.12502
lthumb 4.15182 53.5899
rfemur -5.49282 3.28345 2.73012
rtibia 28.0727
rfoot -15.8771 -4.49396
rtoes -15.7725
lfemur 3.09848 -12.9224 -8.0514
ltibia 12.8845
lfoot -5.64659 -9.62496
ltoes -25.0878
1659
root 10.8237 17.5972 0.811706 186.851 -59.2814 171.201
lowerback 12.4481 3.81945 1.38844
upperback 1.5819 5.15015 -0.257537
thorax -5.1481 2.46792 -1.89604
lowerneck -16.6365 8.53695 -6.53956
upperneck 43.5378 12.3175 2.86745
head 18.6016 3.40317 4.63712
rclavicle -9.93923e-017 -1.59028e-015
rhumerus -37.4324 -13.891 -68.9368
rradius 37.5025
rwrist 0.861115
rhand -15.9325 12.8141
rfingers 7.12502
rthumb 10.2653 -16.9154
lclavicle -9.93923e-017 -1.59028e-015
lhumerus -38.0035 12.4492 76.6097
lradius 34.4048
lwrist -3.67028
lhand -22.7579 24.3563
lfingers 7.12502
lthumb 3.67692 54.3043
rfemur -5.42142 3.61969 2.17994
rtibia 27.8614
rfoot -15.5768 -4.79601
rtoes -16.3355
lfemur 3.20209 -12.3701 -8.60693
ltibia 12.9746
lfoot -6.6374 -9.47208
ltoes -25.074
1660
root 10.7578 17.5807 0.936622 187.08 -59.2243 170.969
lowerback 12.471 3.79099 1.39331
upperback 1.54157 5.11303 -0.296794
thorax -5.20055 2.44863 -1.93739
lowerneck -16.6974 8.51495 -6.58271
upperneck 43.5756 12.2595 2.97546
head 18.6271 3.38412 4.6906
rclavicle -5.32743e-014 1.35174e-014
rhumerus -37.5595 -14.2371 -68.6603
rradius 37.4981
rwrist 1.02526
rhand -16.1724 12.7831
rfingers 7.12502
rthumb 10.0338 -16.9577
lclavicle -5.32743e-014 1.35174e-014
lhumerus -37.8819 12.4108 76.871
lradius 34.2682
lwrist -3.89594
lhand -22.5866 24.4246
lfingers 7.12502
lthumb 3.84228 54.3697
rfemur -5.34031 3.73953 1.54995
rtibia 27.5959
rfoot -15.2131 -5.04019
rtoes -17.3807
lfemur 3.16736 -11.8657 -9.28064
ltibia 13.2019
lfoot -7.6342 -9.12844
ltoes -25.5479
1661
root 10.6952 17.5671 1.07008 187.575 -59.2566 170.534
lowerback 12.4802 3.69129 1.40624
upperback 1.48324 4.98066 -0.38231
thorax -5.26329 2.38199 -2.0159
lowerneck -16.7659 8.49975 -6.8413
upperneck 43.5492 12.2361 3.22154
head 18.5724 3.37516 4.84304
rclavicle -2.33572e-014 1.51076e-014
rhumerus -37.6322 -14.5356 -68.4086
rradius 37.4823
rwrist 1.23359
rhand -16.4032 12.8889
rfingers 7.12502
rthumb 9.81119 -16.8625
lclavicle -2.33572e-014 1.51076e-014
lhumerus -37.747 12.5318 77.0167
lradius 34.1421
lwrist -4.12243
lhand -22.0604 24.0534
lfingers 7.12502
lthumb 4.35041 53.9888
rfemur -5.33267 3.53503 0.783449
rtibia 27.2638
rfoot -14.7345 -5.14974
rtoes -18.5756
lfemur 2.9572 -11.4778 -10.0867
ltibia 13.4433
lfoot -8.51821 -8.5863
ltoes -26.0444
1662
root 10.6359 17.5589 1.19152 187.801 -59.2441 170.177
lowerback 12.6303 3.63807 1.24812
upperback 1.4914 4.88751 -0.391773
thorax -5.35387 2.33667 -1.93347
lowerneck -16.7314 8.51535 -6.85592
upperneck 43.5207 12.239 3.26345
head 18.5374 3.3844 4.85986
rclavicle 4.04527e-014 4.77083e-015
rhumerus -37.6933 -14.889 -68.1267
rradius 37.3753
rwrist 1.52424
rhand -16.4448 13.1434
rfingers 7.12502
rthumb 9.77107 -16.6099
lclavicle 4.04527e-014 4.77083e-015
lhumerus -37.5786 12.2975 77.2958
lradius 34.0483
lwrist -3.8755
lhand -22.34 24.0158
lfingers 7.12502
lthumb 4.08046 53.9565
rfemur -5.09608 3.74238 0.160222
rtibia 26.8517
rfoot -14.3164 -5.48612
rtoes -18.7867
lfemur 2.9484 -11.1941 -10.8691
ltibia 13.8147
lfoot -9.27679 -8.00785
ltoes -24.4599
1663
root 10.5755 17.5612 1.31126 188.052 -59.2412 169.842
lowerback 12.7101 3.61837 1.05299
upperback 1.48678 4.83544 -0.376957
thorax -5.42246 2.31365 -1.80704
lowerneck -16.6284 8.53268 -6.60644
upperneck 43.5187 12.2372 3.06468
head 18.5591 3.3923 4.72117
rclavicle 8.94531e-016 2.54444e-014
rhumerus -37.7848 -15.0893 -67.9005
rradius 37.3082
rwrist 1.49884
rhand -16.5291 13.154
rfingers 7.12502
rthumb 9.68968 -16.6031
lclavicle 8.94531e-016 2.54444e-014
lhumerus -37.3943 11.9543 77.6015
lradius 33.8994
lwrist -3.68082
lhand -22.8761 23.869
lfingers 7.12502
lthumb 3.56272 53.819
rfemur -4.86362 4.32856 -0.4147
rtibia 26.3886
rfoot -13.8744 -5.99091
rtoes -17.4727
lfemur 2.85858 -10.9261 -11.6556
ltibia 14.2406
lfoot -9.93649 -7.42201
ltoes -22.2794
1664
root 10.5102 17.5599 1.43519 188.332 -59.1959 169.674
lowerback 12.5985 3.63713 1.03554
upperback 1.43146 4.86091 -0.379163
thorax -5.4195 2.32795 -1.79846
lowerneck -16.62 8.46078 -6.73853
upperneck 43.5615 12.0815 3.26334
head 18.5565 3.3355 4.80871
rclavicle -1.26129e-013 9.54166e-015
rhumerus -38.0406 -15.3944 -67.6294
rradius 37.3923
rwrist 1.32217
rhand -16.7851 13.0695
rfingers 7.12502
rthumb 9.44265 -16.6989
lclavicle -1.26129e-013 9.54166e-015
lhumerus -37.2776 11.7871 77.8438
lradius 33.7895
lwrist -3.9197
lhand -22.7861 23.4775
lfingers 7.12502
lthumb 3.64967 53.4259
rfemur -4.76883 4.6268 -0.944945
rtibia 25.9299
rfoot -13.2887 -6.41551
rtoes -17.8601
lfemur 2.65739 -10.5196 -12.3724
ltibia 14.5257
lfoot -10.5616 -6.74009
ltoes -21.768
1665
root 10.441 17.552 1.56358 188.31 -59.1263 169.872
lowerback 12.4559 3.62766 1.32239
upperback 1.37657 4.89096 -0.374783
thorax -5.37366 2.33905 -1.95039
lowerneck -16.6414 8.37771 -7.23491
upperneck 43.5739 11.8623 3.89688
head 18.4566 3.26983 5.14248
rclavicle 7.70291e-014 1.51076e-014
rhumerus -38.3411 -15.9399 -67.2594
rradius 37.5179
rwrist 1.42823
rhand -16.8917 13.1894
rfingers 7.12502
rthumb 9.33984 -16.5837
lclavicle 7.70291e-014 1.51076e-014
lhumerus -37.2426 11.7319 78.0574
lradius 33.8322
lwrist -4.27715
lhand -22.2936 23.0104
lfingers 7.12502
lthumb 4.12522 52.9502
rfemur -4.71882 4.84793 -1.28052
rtibia 25.5269
rfoot -12.6595 -6.85165
rtoes -19.0352
lfemur 2.47964 -10.0859 -12.8961
ltibia 14.7607
lfoot -11.0481 -6.07726
ltoes -21.12
